<svg xmlns="http://www.w3.org/2000/svg" height="512" viewBox="0 0 510.817 510.817" width="512" xmlns:v="https://vecta.io/nano"><path d="M424.985 440.021c-1.41 0-2.833-.199-4.225-.606l-165.352-48.43-165.352 48.43c-5.272 1.54-10.971.088-14.857-3.798s-5.342-9.583-3.798-14.857l48.43-165.352L71.403 90.057c-1.545-5.274-.088-10.971 3.798-14.857a15.04 15.04 0 0 1 14.857-3.798l165.352 48.43 165.352-48.43a15.04 15.04 0 0 1 14.857 3.798c3.886 3.886 5.342 9.583 3.798 14.857l-48.43 165.352 48.43 165.352c1.545 5.274.088 10.971-3.798 14.857-2.862 2.859-6.703 4.403-10.634 4.403z" fill="#1f6feb"></path><path d="M390.984 255.409l48.43-165.352c1.545-5.274.088-10.971-3.798-14.857a15.04 15.04 0 0 0-14.857-3.798l-165.352 48.43v271.151l165.352 48.43a15.05 15.05 0 0 0 4.225.606 15.03 15.03 0 0 0 10.632-4.404c3.886-3.886 5.342-9.583 3.798-14.857z" fill="#0e4fb8"></path><path d="M255.409 510.817c-5.496 0-10.554-2.999-13.191-7.821L159.346 351.47 7.821 268.599C2.999 265.962 0 260.905 0 255.409s2.999-10.554 7.821-13.191l151.526-82.872L242.218 7.821C244.855 2.999 249.913 0 255.409 0s10.554 2.999 13.191 7.821l82.871 151.526 151.526 82.872c4.822 2.637 7.821 7.695 7.821 13.191s-2.999 10.554-7.821 13.191l-151.526 82.871L268.6 502.998a15.04 15.04 0 0 1-13.191 7.819z" fill="#6ea8fe"></path><path d="M502.997 242.218l-151.526-82.872L268.599 7.821C265.962 2.999 260.905 0 255.409 0c-.115 0-.228.009-.342.012v510.794c.114.003.227.012.342.012 5.496 0 10.554-2.999 13.191-7.821l82.872-151.526L502.998 268.6c4.822-2.637 7.821-7.695 7.821-13.191a15.04 15.04 0 0 0-7.822-13.191z" fill="#1f6feb"></path><path d="M291.67 270.444h207.955l3.372-1.844c4.822-2.637 7.821-7.695 7.821-13.191s-2.999-10.554-7.821-13.191l-3.372-1.844H291.679l73.483-73.54-13.69-7.487-7.55-13.805-73.477 73.536V11.193l-1.844-3.372A15.04 15.04 0 0 0 255.409 0c-5.496 0-10.554 2.999-13.191 7.821l-1.844 3.372v207.915l-73.488-73.546-7.539 13.785-13.704 7.495 73.478 73.532H11.193l-3.372 1.844C2.999 244.855 0 249.913 0 255.409s2.999 10.554 7.821 13.191l3.372 1.844H219.12l-73.475 73.534 13.702 7.494 7.542 13.79 73.485-73.543v207.906l1.844 3.372c2.637 4.822 7.695 7.821 13.191 7.821s10.554-2.999 13.191-7.821l1.844-3.372V291.736l73.48 73.535 7.547-13.8 13.685-7.484z" fill="#9ec5fe"></path><path d="M502.997 242.218l-3.372-1.844H291.679l73.483-73.54-13.69-7.487-7.55-13.805-73.477 73.536V11.193l-1.844-3.372A15.04 15.04 0 0 0 255.409 0l-.342.012v510.794l.342.012c5.496 0 10.554-2.999 13.191-7.821l1.844-3.372V291.736l73.48 73.535 7.547-13.8 13.685-7.484-73.486-73.543h207.955l3.372-1.844c4.822-2.637 7.821-7.695 7.821-13.191a15.04 15.04 0 0 0-7.821-13.191z" fill="#6ea8fe"></path></svg>